<svg width="140" height="23" viewBox="0 0 140 23" fill="none" xmlns="http://www.w3.org/2000/svg">
<path fill-rule="evenodd" clip-rule="evenodd" d="M9.93385 3.43143C7.63473 3.43143 5.42944 4.32825 3.80319 5.92515C2.17689 7.5221 1.26293 9.68838 1.26293 11.9475V20.3099C1.26266 20.3304 1.26651 20.3507 1.27434 20.3696C1.28216 20.3885 1.29371 20.4056 1.30823 20.4199C1.32274 20.4341 1.33991 20.4453 1.35869 20.4528C1.37747 20.4602 1.39752 20.4639 1.41768 20.4637L1.42584 20.4636L9.93385 20.4636C11.0723 20.4636 12.1996 20.2434 13.2515 19.8156C14.3034 19.3878 15.2593 18.7606 16.0645 17.9699C16.8698 17.1792 17.5086 16.2404 17.9445 15.2071C18.3804 14.1737 18.6048 13.0661 18.6048 11.9475C18.6048 10.829 18.3804 9.72136 17.9445 8.68802C17.5086 7.65467 16.8698 6.71586 16.0645 5.92515C15.2593 5.13443 14.3034 4.50729 13.2515 4.07945C12.1996 3.65162 11.0723 3.43143 9.93385 3.43143ZM9.93385 21.6666H1.42923C1.24615 21.6683 1.06456 21.6344 0.895005 21.5667C0.723986 21.4984 0.568739 21.3973 0.43838 21.2693C0.308025 21.1413 0.205194 20.989 0.135869 20.8215C0.067128 20.6555 0.0326883 20.4777 0.0344911 20.2986V11.9475C0.0344911 9.37043 1.07704 6.89854 2.93334 5.07574C4.7897 3.25289 7.30783 2.22852 9.93385 2.22852C11.2341 2.22852 12.5216 2.48 13.7227 2.96856C14.9239 3.45712 16.0152 4.17317 16.9344 5.07574C17.8535 5.97831 18.5825 7.04973 19.0799 8.22877C19.5773 9.40781 19.8332 10.6714 19.8332 11.9475C19.8332 13.2236 19.5773 14.4873 19.0799 15.6663C18.5825 16.8453 17.8535 17.9168 16.9344 18.8193C16.0152 19.7219 14.9239 20.4379 13.7227 20.9265C12.5216 21.4151 11.2341 21.6666 9.93385 21.6666Z" fill="#00B37E"/>
<path fill-rule="evenodd" clip-rule="evenodd" d="M6.09009 10.7583C6.09009 10.4261 6.36508 10.1569 6.70431 10.1569H12.7598C13.0991 10.1569 13.3741 10.4261 13.3741 10.7583C13.3741 11.0905 13.0991 11.3598 12.7598 11.3598H6.70431C6.36508 11.3598 6.09009 11.0905 6.09009 10.7583Z" fill="#996DFF"/>
<path fill-rule="evenodd" clip-rule="evenodd" d="M6.09009 13.9296C6.09009 13.5974 6.36508 13.3281 6.70431 13.3281H12.7598C13.0991 13.3281 13.3741 13.5974 13.3741 13.9296C13.3741 14.2618 13.0991 14.531 12.7598 14.531H6.70431C6.36508 14.531 6.09009 14.2618 6.09009 13.9296Z" fill="#996DFF"/>
<path d="M36.2812 16.5742H38.5312C38.4141 17.6523 38.1055 18.6172 37.6055 19.4688C37.1055 20.3203 36.3984 20.9961 35.4844 21.4961C34.5703 21.9883 33.4297 22.2344 32.0625 22.2344C31.0625 22.2344 30.1523 22.0469 29.332 21.6719C28.5195 21.2969 27.8203 20.7656 27.2344 20.0781C26.6484 19.3828 26.1953 18.5508 25.875 17.582C25.5625 16.6055 25.4062 15.5195 25.4062 14.3242V12.625C25.4062 11.4297 25.5625 10.3477 25.875 9.37891C26.1953 8.40234 26.6523 7.56641 27.2461 6.87109C27.8477 6.17578 28.5703 5.64062 29.4141 5.26562C30.2578 4.89062 31.207 4.70312 32.2617 4.70312C33.5508 4.70312 34.6406 4.94531 35.5312 5.42969C36.4219 5.91406 37.1133 6.58594 37.6055 7.44531C38.1055 8.29688 38.4141 9.28516 38.5312 10.4102H36.2812C36.1719 9.61328 35.9688 8.92969 35.6719 8.35938C35.375 7.78125 34.9531 7.33594 34.4062 7.02344C33.8594 6.71094 33.1445 6.55469 32.2617 6.55469C31.5039 6.55469 30.8359 6.69922 30.2578 6.98828C29.6875 7.27734 29.207 7.6875 28.8164 8.21875C28.4336 8.75 28.1445 9.38672 27.9492 10.1289C27.7539 10.8711 27.6562 11.6953 27.6562 12.6016V14.3242C27.6562 15.1602 27.7422 15.9453 27.9141 16.6797C28.0938 17.4141 28.3633 18.0586 28.7227 18.6133C29.082 19.168 29.5391 19.6055 30.0938 19.9258C30.6484 20.2383 31.3047 20.3945 32.0625 20.3945C33.0234 20.3945 33.7891 20.2422 34.3594 19.9375C34.9297 19.6328 35.3594 19.1953 35.6484 18.625C35.9453 18.0547 36.1562 17.3711 36.2812 16.5742ZM43.4531 4V22H41.2852V4H43.4531ZM42.9375 15.1797L42.0352 15.1445C42.043 14.2773 42.1719 13.4766 42.4219 12.7422C42.6719 12 43.0234 11.3555 43.4766 10.8086C43.9297 10.2617 44.4688 9.83984 45.0938 9.54297C45.7266 9.23828 46.4258 9.08594 47.1914 9.08594C47.8164 9.08594 48.3789 9.17188 48.8789 9.34375C49.3789 9.50781 49.8047 9.77344 50.1562 10.1406C50.5156 10.5078 50.7891 10.9844 50.9766 11.5703C51.1641 12.1484 51.2578 12.8555 51.2578 13.6914V22H49.0781V13.668C49.0781 13.0039 48.9805 12.4727 48.7852 12.0742C48.5898 11.668 48.3047 11.375 47.9297 11.1953C47.5547 11.0078 47.0938 10.9141 46.5469 10.9141C46.0078 10.9141 45.5156 11.0273 45.0703 11.2539C44.6328 11.4805 44.2539 11.793 43.9336 12.1914C43.6211 12.5898 43.375 13.0469 43.1953 13.5625C43.0234 14.0703 42.9375 14.6094 42.9375 15.1797ZM61.9805 19.832V13.3047C61.9805 12.8047 61.8789 12.3711 61.6758 12.0039C61.4805 11.6289 61.1836 11.3398 60.7852 11.1367C60.3867 10.9336 59.8945 10.832 59.3086 10.832C58.7617 10.832 58.2812 10.9258 57.8672 11.1133C57.4609 11.3008 57.1406 11.5469 56.9062 11.8516C56.6797 12.1562 56.5664 12.4844 56.5664 12.8359H54.3984C54.3984 12.3828 54.5156 11.9336 54.75 11.4883C54.9844 11.043 55.3203 10.6406 55.7578 10.2812C56.2031 9.91406 56.7344 9.625 57.3516 9.41406C57.9766 9.19531 58.6719 9.08594 59.4375 9.08594C60.3594 9.08594 61.1719 9.24219 61.875 9.55469C62.5859 9.86719 63.1406 10.3398 63.5391 10.9727C63.9453 11.5977 64.1484 12.3828 64.1484 13.3281V19.2344C64.1484 19.6562 64.1836 20.1055 64.2539 20.582C64.332 21.0586 64.4453 21.4688 64.5938 21.8125V22H62.332C62.2227 21.75 62.1367 21.418 62.0742 21.0039C62.0117 20.582 61.9805 20.1914 61.9805 19.832ZM62.3555 14.3125L62.3789 15.8359H60.1875C59.5703 15.8359 59.0195 15.8867 58.5352 15.9883C58.0508 16.082 57.6445 16.2266 57.3164 16.4219C56.9883 16.6172 56.7383 16.8633 56.5664 17.1602C56.3945 17.4492 56.3086 17.7891 56.3086 18.1797C56.3086 18.5781 56.3984 18.9414 56.5781 19.2695C56.7578 19.5977 57.0273 19.8594 57.3867 20.0547C57.7539 20.2422 58.2031 20.3359 58.7344 20.3359C59.3984 20.3359 59.9844 20.1953 60.4922 19.9141C61 19.6328 61.4023 19.2891 61.6992 18.8828C62.0039 18.4766 62.168 18.082 62.1914 17.6992L63.1172 18.7422C63.0625 19.0703 62.9141 19.4336 62.6719 19.832C62.4297 20.2305 62.1055 20.6133 61.6992 20.9805C61.3008 21.3398 60.8242 21.6406 60.2695 21.8828C59.7227 22.1172 59.1055 22.2344 58.418 22.2344C57.5586 22.2344 56.8047 22.0664 56.1562 21.7305C55.5156 21.3945 55.0156 20.9453 54.6562 20.3828C54.3047 19.8125 54.1289 19.1758 54.1289 18.4727C54.1289 17.793 54.2617 17.1953 54.5273 16.6797C54.793 16.1562 55.1758 15.7227 55.6758 15.3789C56.1758 15.0273 56.7773 14.7617 57.4805 14.582C58.1836 14.4023 58.9688 14.3125 59.8359 14.3125H62.3555ZM69.7148 11.8398V22H67.5352V9.32031H69.5977L69.7148 11.8398ZM69.2695 15.1797L68.2617 15.1445C68.2695 14.2773 68.3828 13.4766 68.6016 12.7422C68.8203 12 69.1445 11.3555 69.5742 10.8086C70.0039 10.2617 70.5391 9.83984 71.1797 9.54297C71.8203 9.23828 72.5625 9.08594 73.4062 9.08594C74 9.08594 74.5469 9.17188 75.0469 9.34375C75.5469 9.50781 75.9805 9.76953 76.3477 10.1289C76.7148 10.4883 77 10.9492 77.2031 11.5117C77.4062 12.0742 77.5078 12.7539 77.5078 13.5508V22H75.3398V13.6562C75.3398 12.9922 75.2266 12.4609 75 12.0625C74.7812 11.6641 74.4688 11.375 74.0625 11.1953C73.6562 11.0078 73.1797 10.9141 72.6328 10.9141C71.9922 10.9141 71.457 11.0273 71.0273 11.2539C70.5977 11.4805 70.2539 11.793 69.9961 12.1914C69.7383 12.5898 69.5508 13.0469 69.4336 13.5625C69.3242 14.0703 69.2695 14.6094 69.2695 15.1797ZM77.4844 13.9844L76.0312 14.4297C76.0391 13.7344 76.1523 13.0664 76.3711 12.4258C76.5977 11.7852 76.9219 11.2148 77.3438 10.7148C77.7734 10.2148 78.3008 9.82031 78.9258 9.53125C79.5508 9.23438 80.2656 9.08594 81.0703 9.08594C81.75 9.08594 82.3516 9.17578 82.875 9.35547C83.4062 9.53516 83.8516 9.8125 84.2109 10.1875C84.5781 10.5547 84.8555 11.0273 85.043 11.6055C85.2305 12.1836 85.3242 12.8711 85.3242 13.668V22H83.1445V13.6445C83.1445 12.9336 83.0312 12.3828 82.8047 11.9922C82.5859 11.5938 82.2734 11.3164 81.8672 11.1602C81.4688 10.9961 80.9922 10.9141 80.4375 10.9141C79.9609 10.9141 79.5391 10.9961 79.1719 11.1602C78.8047 11.3242 78.4961 11.5508 78.2461 11.8398C77.9961 12.1211 77.8047 12.4453 77.6719 12.8125C77.5469 13.1797 77.4844 13.5703 77.4844 13.9844ZM96.082 19.832V13.3047C96.082 12.8047 95.9805 12.3711 95.7773 12.0039C95.582 11.6289 95.2852 11.3398 94.8867 11.1367C94.4883 10.9336 93.9961 10.832 93.4102 10.832C92.8633 10.832 92.3828 10.9258 91.9688 11.1133C91.5625 11.3008 91.2422 11.5469 91.0078 11.8516C90.7812 12.1562 90.668 12.4844 90.668 12.8359H88.5C88.5 12.3828 88.6172 11.9336 88.8516 11.4883C89.0859 11.043 89.4219 10.6406 89.8594 10.2812C90.3047 9.91406 90.8359 9.625 91.4531 9.41406C92.0781 9.19531 92.7734 9.08594 93.5391 9.08594C94.4609 9.08594 95.2734 9.24219 95.9766 9.55469C96.6875 9.86719 97.2422 10.3398 97.6406 10.9727C98.0469 11.5977 98.25 12.3828 98.25 13.3281V19.2344C98.25 19.6562 98.2852 20.1055 98.3555 20.582C98.4336 21.0586 98.5469 21.4688 98.6953 21.8125V22H96.4336C96.3242 21.75 96.2383 21.418 96.1758 21.0039C96.1133 20.582 96.082 20.1914 96.082 19.832ZM96.457 14.3125L96.4805 15.8359H94.2891C93.6719 15.8359 93.1211 15.8867 92.6367 15.9883C92.1523 16.082 91.7461 16.2266 91.418 16.4219C91.0898 16.6172 90.8398 16.8633 90.668 17.1602C90.4961 17.4492 90.4102 17.7891 90.4102 18.1797C90.4102 18.5781 90.5 18.9414 90.6797 19.2695C90.8594 19.5977 91.1289 19.8594 91.4883 20.0547C91.8555 20.2422 92.3047 20.3359 92.8359 20.3359C93.5 20.3359 94.0859 20.1953 94.5938 19.9141C95.1016 19.6328 95.5039 19.2891 95.8008 18.8828C96.1055 18.4766 96.2695 18.082 96.293 17.6992L97.2188 18.7422C97.1641 19.0703 97.0156 19.4336 96.7734 19.832C96.5312 20.2305 96.207 20.6133 95.8008 20.9805C95.4023 21.3398 94.9258 21.6406 94.3711 21.8828C93.8242 22.1172 93.207 22.2344 92.5195 22.2344C91.6602 22.2344 90.9062 22.0664 90.2578 21.7305C89.6172 21.3945 89.1172 20.9453 88.7578 20.3828C88.4062 19.8125 88.2305 19.1758 88.2305 18.4727C88.2305 17.793 88.3633 17.1953 88.6289 16.6797C88.8945 16.1562 89.2773 15.7227 89.7773 15.3789C90.2773 15.0273 90.8789 14.7617 91.582 14.582C92.2852 14.4023 93.0703 14.3125 93.9375 14.3125H96.457ZM109.652 19.5391V4H111.832V22H109.84L109.652 19.5391ZM101.121 15.8008V15.5547C101.121 14.5859 101.238 13.707 101.473 12.918C101.715 12.1211 102.055 11.4375 102.492 10.8672C102.938 10.2969 103.465 9.85938 104.074 9.55469C104.691 9.24219 105.379 9.08594 106.137 9.08594C106.934 9.08594 107.629 9.22656 108.223 9.50781C108.824 9.78125 109.332 10.1836 109.746 10.7148C110.168 11.2383 110.5 11.8711 110.742 12.6133C110.984 13.3555 111.152 14.1953 111.246 15.1328V16.2109C111.16 17.1406 110.992 17.9766 110.742 18.7188C110.5 19.4609 110.168 20.0938 109.746 20.6172C109.332 21.1406 108.824 21.543 108.223 21.8242C107.621 22.0977 106.918 22.2344 106.113 22.2344C105.371 22.2344 104.691 22.0742 104.074 21.7539C103.465 21.4336 102.938 20.9844 102.492 20.4062C102.055 19.8281 101.715 19.1484 101.473 18.3672C101.238 17.5781 101.121 16.7227 101.121 15.8008ZM103.301 15.5547V15.8008C103.301 16.4336 103.363 17.0273 103.488 17.582C103.621 18.1367 103.824 18.625 104.098 19.0469C104.371 19.4688 104.719 19.8008 105.141 20.043C105.562 20.2773 106.066 20.3945 106.652 20.3945C107.371 20.3945 107.961 20.2422 108.422 19.9375C108.891 19.6328 109.266 19.2305 109.547 18.7305C109.828 18.2305 110.047 17.6875 110.203 17.1016V14.2773C110.109 13.8477 109.973 13.4336 109.793 13.0352C109.621 12.6289 109.395 12.2695 109.113 11.957C108.84 11.6367 108.5 11.3828 108.094 11.1953C107.695 11.0078 107.223 10.9141 106.676 10.9141C106.082 10.9141 105.57 11.0391 105.141 11.2891C104.719 11.5312 104.371 11.8672 104.098 12.2969C103.824 12.7188 103.621 13.2109 103.488 13.7734C103.363 14.3281 103.301 14.9219 103.301 15.5547ZM114.633 15.8008V15.5312C114.633 14.6172 114.766 13.7695 115.031 12.9883C115.297 12.1992 115.68 11.5156 116.18 10.9375C116.68 10.3516 117.285 9.89844 117.996 9.57812C118.707 9.25 119.504 9.08594 120.387 9.08594C121.277 9.08594 122.078 9.25 122.789 9.57812C123.508 9.89844 124.117 10.3516 124.617 10.9375C125.125 11.5156 125.512 12.1992 125.777 12.9883C126.043 13.7695 126.176 14.6172 126.176 15.5312V15.8008C126.176 16.7148 126.043 17.5625 125.777 18.3438C125.512 19.125 125.125 19.8086 124.617 20.3945C124.117 20.9727 123.512 21.4258 122.801 21.7539C122.098 22.0742 121.301 22.2344 120.41 22.2344C119.52 22.2344 118.719 22.0742 118.008 21.7539C117.297 21.4258 116.688 20.9727 116.18 20.3945C115.68 19.8086 115.297 19.125 115.031 18.3438C114.766 17.5625 114.633 16.7148 114.633 15.8008ZM116.801 15.5312V15.8008C116.801 16.4336 116.875 17.0312 117.023 17.5938C117.172 18.1484 117.395 18.6406 117.691 19.0703C117.996 19.5 118.375 19.8398 118.828 20.0898C119.281 20.332 119.809 20.4531 120.41 20.4531C121.004 20.4531 121.523 20.332 121.969 20.0898C122.422 19.8398 122.797 19.5 123.094 19.0703C123.391 18.6406 123.613 18.1484 123.762 17.5938C123.918 17.0312 123.996 16.4336 123.996 15.8008V15.5312C123.996 14.9062 123.918 14.3164 123.762 13.7617C123.613 13.1992 123.387 12.7031 123.082 12.2734C122.785 11.8359 122.41 11.4922 121.957 11.2422C121.512 10.9922 120.988 10.8672 120.387 10.8672C119.793 10.8672 119.27 10.9922 118.816 11.2422C118.371 11.4922 117.996 11.8359 117.691 12.2734C117.395 12.7031 117.172 13.1992 117.023 13.7617C116.875 14.3164 116.801 14.9062 116.801 15.5312ZM136.277 18.6367C136.277 18.3242 136.207 18.0352 136.066 17.7695C135.934 17.4961 135.656 17.25 135.234 17.0312C134.82 16.8047 134.195 16.6094 133.359 16.4453C132.656 16.2969 132.02 16.1211 131.449 15.918C130.887 15.7148 130.406 15.4688 130.008 15.1797C129.617 14.8906 129.316 14.5508 129.105 14.1602C128.895 13.7695 128.789 13.3125 128.789 12.7891C128.789 12.2891 128.898 11.8164 129.117 11.3711C129.344 10.9258 129.66 10.5312 130.066 10.1875C130.48 9.84375 130.977 9.57422 131.555 9.37891C132.133 9.18359 132.777 9.08594 133.488 9.08594C134.504 9.08594 135.371 9.26562 136.09 9.625C136.809 9.98438 137.359 10.4648 137.742 11.0664C138.125 11.6602 138.316 12.3203 138.316 13.0469H136.148C136.148 12.6953 136.043 12.3555 135.832 12.0273C135.629 11.6914 135.328 11.4141 134.93 11.1953C134.539 10.9766 134.059 10.8672 133.488 10.8672C132.887 10.8672 132.398 10.9609 132.023 11.1484C131.656 11.3281 131.387 11.5586 131.215 11.8398C131.051 12.1211 130.969 12.418 130.969 12.7305C130.969 12.9648 131.008 13.1758 131.086 13.3633C131.172 13.543 131.32 13.7109 131.531 13.8672C131.742 14.0156 132.039 14.1562 132.422 14.2891C132.805 14.4219 133.293 14.5547 133.887 14.6875C134.926 14.9219 135.781 15.2031 136.453 15.5312C137.125 15.8594 137.625 16.2617 137.953 16.7383C138.281 17.2148 138.445 17.793 138.445 18.4727C138.445 19.0273 138.328 19.5352 138.094 19.9961C137.867 20.457 137.535 20.8555 137.098 21.1914C136.668 21.5195 136.152 21.7773 135.551 21.9648C134.957 22.1445 134.289 22.2344 133.547 22.2344C132.43 22.2344 131.484 22.0352 130.711 21.6367C129.938 21.2383 129.352 20.7227 128.953 20.0898C128.555 19.457 128.355 18.7891 128.355 18.0859H130.535C130.566 18.6797 130.738 19.1523 131.051 19.5039C131.363 19.8477 131.746 20.0938 132.199 20.2422C132.652 20.3828 133.102 20.4531 133.547 20.4531C134.141 20.4531 134.637 20.375 135.035 20.2188C135.441 20.0625 135.75 19.8477 135.961 19.5742C136.172 19.3008 136.277 18.9883 136.277 18.6367Z" fill="#996DFF"/>
</svg>
