<svg width="116" height="65" viewBox="0 0 116 65" fill="none" xmlns="http://www.w3.org/2000/svg">
<path d="M58.6895 35.5909H44.8378C44.671 35.5931 44.5055 35.5618 44.351 35.4988C44.1965 35.4358 44.0561 35.3425 43.9382 35.2242C43.8203 35.106 43.7272 34.9652 43.6644 34.8103C43.6016 34.6553 43.5703 34.4894 43.5726 34.3221V20.4318C43.5726 16.4114 45.1652 12.5556 48.0002 9.7127C50.8352 6.86982 54.6802 5.27271 58.6895 5.27271V5.27271C60.6747 5.27271 62.6404 5.66481 64.4745 6.42662C66.3086 7.18844 67.975 8.30505 69.3788 9.7127C70.7825 11.1204 71.896 12.7915 72.6557 14.6307C73.4154 16.4698 73.8064 18.4411 73.8064 20.4318V20.4318C73.8064 22.4225 73.4154 24.3937 72.6557 26.2329C71.896 28.0721 70.7825 29.7432 69.3788 31.1509C67.975 32.5585 66.3086 33.6752 64.4745 34.437C62.6404 35.1988 60.6747 35.5909 58.6895 35.5909V35.5909Z" stroke="#00B37E" stroke-width="2" stroke-linecap="round" stroke-linejoin="round"/>
<path d="M53.4315 18.4546H63.2903" stroke="#996DFF" stroke-width="2" stroke-linecap="round" stroke-linejoin="round"/>
<path d="M53.4315 23.7273H63.2903" stroke="#996DFF" stroke-width="2" stroke-linecap="round" stroke-linejoin="round"/>
<path d="M12.2812 54.5742H14.5312C14.4141 55.6523 14.1055 56.6172 13.6055 57.4688C13.1055 58.3203 12.3984 58.9961 11.4844 59.4961C10.5703 59.9883 9.42969 60.2344 8.0625 60.2344C7.0625 60.2344 6.15234 60.0469 5.33203 59.6719C4.51953 59.2969 3.82031 58.7656 3.23438 58.0781C2.64844 57.3828 2.19531 56.5508 1.875 55.582C1.5625 54.6055 1.40625 53.5195 1.40625 52.3242V50.625C1.40625 49.4297 1.5625 48.3477 1.875 47.3789C2.19531 46.4023 2.65234 45.5664 3.24609 44.8711C3.84766 44.1758 4.57031 43.6406 5.41406 43.2656C6.25781 42.8906 7.20703 42.7031 8.26172 42.7031C9.55078 42.7031 10.6406 42.9453 11.5312 43.4297C12.4219 43.9141 13.1133 44.5859 13.6055 45.4453C14.1055 46.2969 14.4141 47.2852 14.5312 48.4102H12.2812C12.1719 47.6133 11.9688 46.9297 11.6719 46.3594C11.375 45.7812 10.9531 45.3359 10.4062 45.0234C9.85938 44.7109 9.14453 44.5547 8.26172 44.5547C7.50391 44.5547 6.83594 44.6992 6.25781 44.9883C5.6875 45.2773 5.20703 45.6875 4.81641 46.2188C4.43359 46.75 4.14453 47.3867 3.94922 48.1289C3.75391 48.8711 3.65625 49.6953 3.65625 50.6016V52.3242C3.65625 53.1602 3.74219 53.9453 3.91406 54.6797C4.09375 55.4141 4.36328 56.0586 4.72266 56.6133C5.08203 57.168 5.53906 57.6055 6.09375 57.9258C6.64844 58.2383 7.30469 58.3945 8.0625 58.3945C9.02344 58.3945 9.78906 58.2422 10.3594 57.9375C10.9297 57.6328 11.3594 57.1953 11.6484 56.625C11.9453 56.0547 12.1562 55.3711 12.2812 54.5742ZM19.4531 42V60H17.2852V42H19.4531ZM18.9375 53.1797L18.0352 53.1445C18.043 52.2773 18.1719 51.4766 18.4219 50.7422C18.6719 50 19.0234 49.3555 19.4766 48.8086C19.9297 48.2617 20.4688 47.8398 21.0938 47.543C21.7266 47.2383 22.4258 47.0859 23.1914 47.0859C23.8164 47.0859 24.3789 47.1719 24.8789 47.3438C25.3789 47.5078 25.8047 47.7734 26.1562 48.1406C26.5156 48.5078 26.7891 48.9844 26.9766 49.5703C27.1641 50.1484 27.2578 50.8555 27.2578 51.6914V60H25.0781V51.668C25.0781 51.0039 24.9805 50.4727 24.7852 50.0742C24.5898 49.668 24.3047 49.375 23.9297 49.1953C23.5547 49.0078 23.0938 48.9141 22.5469 48.9141C22.0078 48.9141 21.5156 49.0273 21.0703 49.2539C20.6328 49.4805 20.2539 49.793 19.9336 50.1914C19.6211 50.5898 19.375 51.0469 19.1953 51.5625C19.0234 52.0703 18.9375 52.6094 18.9375 53.1797ZM37.9805 57.832V51.3047C37.9805 50.8047 37.8789 50.3711 37.6758 50.0039C37.4805 49.6289 37.1836 49.3398 36.7852 49.1367C36.3867 48.9336 35.8945 48.832 35.3086 48.832C34.7617 48.832 34.2812 48.9258 33.8672 49.1133C33.4609 49.3008 33.1406 49.5469 32.9062 49.8516C32.6797 50.1562 32.5664 50.4844 32.5664 50.8359H30.3984C30.3984 50.3828 30.5156 49.9336 30.75 49.4883C30.9844 49.043 31.3203 48.6406 31.7578 48.2812C32.2031 47.9141 32.7344 47.625 33.3516 47.4141C33.9766 47.1953 34.6719 47.0859 35.4375 47.0859C36.3594 47.0859 37.1719 47.2422 37.875 47.5547C38.5859 47.8672 39.1406 48.3398 39.5391 48.9727C39.9453 49.5977 40.1484 50.3828 40.1484 51.3281V57.2344C40.1484 57.6562 40.1836 58.1055 40.2539 58.582C40.332 59.0586 40.4453 59.4688 40.5938 59.8125V60H38.332C38.2227 59.75 38.1367 59.418 38.0742 59.0039C38.0117 58.582 37.9805 58.1914 37.9805 57.832ZM38.3555 52.3125L38.3789 53.8359H36.1875C35.5703 53.8359 35.0195 53.8867 34.5352 53.9883C34.0508 54.082 33.6445 54.2266 33.3164 54.4219C32.9883 54.6172 32.7383 54.8633 32.5664 55.1602C32.3945 55.4492 32.3086 55.7891 32.3086 56.1797C32.3086 56.5781 32.3984 56.9414 32.5781 57.2695C32.7578 57.5977 33.0273 57.8594 33.3867 58.0547C33.7539 58.2422 34.2031 58.3359 34.7344 58.3359C35.3984 58.3359 35.9844 58.1953 36.4922 57.9141C37 57.6328 37.4023 57.2891 37.6992 56.8828C38.0039 56.4766 38.168 56.082 38.1914 55.6992L39.1172 56.7422C39.0625 57.0703 38.9141 57.4336 38.6719 57.832C38.4297 58.2305 38.1055 58.6133 37.6992 58.9805C37.3008 59.3398 36.8242 59.6406 36.2695 59.8828C35.7227 60.1172 35.1055 60.2344 34.418 60.2344C33.5586 60.2344 32.8047 60.0664 32.1562 59.7305C31.5156 59.3945 31.0156 58.9453 30.6562 58.3828C30.3047 57.8125 30.1289 57.1758 30.1289 56.4727C30.1289 55.793 30.2617 55.1953 30.5273 54.6797C30.793 54.1562 31.1758 53.7227 31.6758 53.3789C32.1758 53.0273 32.7773 52.7617 33.4805 52.582C34.1836 52.4023 34.9688 52.3125 35.8359 52.3125H38.3555ZM45.7148 49.8398V60H43.5352V47.3203H45.5977L45.7148 49.8398ZM45.2695 53.1797L44.2617 53.1445C44.2695 52.2773 44.3828 51.4766 44.6016 50.7422C44.8203 50 45.1445 49.3555 45.5742 48.8086C46.0039 48.2617 46.5391 47.8398 47.1797 47.543C47.8203 47.2383 48.5625 47.0859 49.4062 47.0859C50 47.0859 50.5469 47.1719 51.0469 47.3438C51.5469 47.5078 51.9805 47.7695 52.3477 48.1289C52.7148 48.4883 53 48.9492 53.2031 49.5117C53.4062 50.0742 53.5078 50.7539 53.5078 51.5508V60H51.3398V51.6562C51.3398 50.9922 51.2266 50.4609 51 50.0625C50.7812 49.6641 50.4688 49.375 50.0625 49.1953C49.6562 49.0078 49.1797 48.9141 48.6328 48.9141C47.9922 48.9141 47.457 49.0273 47.0273 49.2539C46.5977 49.4805 46.2539 49.793 45.9961 50.1914C45.7383 50.5898 45.5508 51.0469 45.4336 51.5625C45.3242 52.0703 45.2695 52.6094 45.2695 53.1797ZM53.4844 51.9844L52.0312 52.4297C52.0391 51.7344 52.1523 51.0664 52.3711 50.4258C52.5977 49.7852 52.9219 49.2148 53.3438 48.7148C53.7734 48.2148 54.3008 47.8203 54.9258 47.5312C55.5508 47.2344 56.2656 47.0859 57.0703 47.0859C57.75 47.0859 58.3516 47.1758 58.875 47.3555C59.4062 47.5352 59.8516 47.8125 60.2109 48.1875C60.5781 48.5547 60.8555 49.0273 61.043 49.6055C61.2305 50.1836 61.3242 50.8711 61.3242 51.668V60H59.1445V51.6445C59.1445 50.9336 59.0312 50.3828 58.8047 49.9922C58.5859 49.5938 58.2734 49.3164 57.8672 49.1602C57.4688 48.9961 56.9922 48.9141 56.4375 48.9141C55.9609 48.9141 55.5391 48.9961 55.1719 49.1602C54.8047 49.3242 54.4961 49.5508 54.2461 49.8398C53.9961 50.1211 53.8047 50.4453 53.6719 50.8125C53.5469 51.1797 53.4844 51.5703 53.4844 51.9844ZM72.082 57.832V51.3047C72.082 50.8047 71.9805 50.3711 71.7773 50.0039C71.582 49.6289 71.2852 49.3398 70.8867 49.1367C70.4883 48.9336 69.9961 48.832 69.4102 48.832C68.8633 48.832 68.3828 48.9258 67.9688 49.1133C67.5625 49.3008 67.2422 49.5469 67.0078 49.8516C66.7812 50.1562 66.668 50.4844 66.668 50.8359H64.5C64.5 50.3828 64.6172 49.9336 64.8516 49.4883C65.0859 49.043 65.4219 48.6406 65.8594 48.2812C66.3047 47.9141 66.8359 47.625 67.4531 47.4141C68.0781 47.1953 68.7734 47.0859 69.5391 47.0859C70.4609 47.0859 71.2734 47.2422 71.9766 47.5547C72.6875 47.8672 73.2422 48.3398 73.6406 48.9727C74.0469 49.5977 74.25 50.3828 74.25 51.3281V57.2344C74.25 57.6562 74.2852 58.1055 74.3555 58.582C74.4336 59.0586 74.5469 59.4688 74.6953 59.8125V60H72.4336C72.3242 59.75 72.2383 59.418 72.1758 59.0039C72.1133 58.582 72.082 58.1914 72.082 57.832ZM72.457 52.3125L72.4805 53.8359H70.2891C69.6719 53.8359 69.1211 53.8867 68.6367 53.9883C68.1523 54.082 67.7461 54.2266 67.418 54.4219C67.0898 54.6172 66.8398 54.8633 66.668 55.1602C66.4961 55.4492 66.4102 55.7891 66.4102 56.1797C66.4102 56.5781 66.5 56.9414 66.6797 57.2695C66.8594 57.5977 67.1289 57.8594 67.4883 58.0547C67.8555 58.2422 68.3047 58.3359 68.8359 58.3359C69.5 58.3359 70.0859 58.1953 70.5938 57.9141C71.1016 57.6328 71.5039 57.2891 71.8008 56.8828C72.1055 56.4766 72.2695 56.082 72.293 55.6992L73.2188 56.7422C73.1641 57.0703 73.0156 57.4336 72.7734 57.832C72.5312 58.2305 72.207 58.6133 71.8008 58.9805C71.4023 59.3398 70.9258 59.6406 70.3711 59.8828C69.8242 60.1172 69.207 60.2344 68.5195 60.2344C67.6602 60.2344 66.9062 60.0664 66.2578 59.7305C65.6172 59.3945 65.1172 58.9453 64.7578 58.3828C64.4062 57.8125 64.2305 57.1758 64.2305 56.4727C64.2305 55.793 64.3633 55.1953 64.6289 54.6797C64.8945 54.1562 65.2773 53.7227 65.7773 53.3789C66.2773 53.0273 66.8789 52.7617 67.582 52.582C68.2852 52.4023 69.0703 52.3125 69.9375 52.3125H72.457ZM85.6523 57.5391V42H87.832V60H85.8398L85.6523 57.5391ZM77.1211 53.8008V53.5547C77.1211 52.5859 77.2383 51.707 77.4727 50.918C77.7148 50.1211 78.0547 49.4375 78.4922 48.8672C78.9375 48.2969 79.4648 47.8594 80.0742 47.5547C80.6914 47.2422 81.3789 47.0859 82.1367 47.0859C82.9336 47.0859 83.6289 47.2266 84.2227 47.5078C84.8242 47.7812 85.332 48.1836 85.7461 48.7148C86.168 49.2383 86.5 49.8711 86.7422 50.6133C86.9844 51.3555 87.1523 52.1953 87.2461 53.1328V54.2109C87.1602 55.1406 86.9922 55.9766 86.7422 56.7188C86.5 57.4609 86.168 58.0938 85.7461 58.6172C85.332 59.1406 84.8242 59.543 84.2227 59.8242C83.6211 60.0977 82.918 60.2344 82.1133 60.2344C81.3711 60.2344 80.6914 60.0742 80.0742 59.7539C79.4648 59.4336 78.9375 58.9844 78.4922 58.4062C78.0547 57.8281 77.7148 57.1484 77.4727 56.3672C77.2383 55.5781 77.1211 54.7227 77.1211 53.8008ZM79.3008 53.5547V53.8008C79.3008 54.4336 79.3633 55.0273 79.4883 55.582C79.6211 56.1367 79.8242 56.625 80.0977 57.0469C80.3711 57.4688 80.7188 57.8008 81.1406 58.043C81.5625 58.2773 82.0664 58.3945 82.6523 58.3945C83.3711 58.3945 83.9609 58.2422 84.4219 57.9375C84.8906 57.6328 85.2656 57.2305 85.5469 56.7305C85.8281 56.2305 86.0469 55.6875 86.2031 55.1016V52.2773C86.1094 51.8477 85.9727 51.4336 85.793 51.0352C85.6211 50.6289 85.3945 50.2695 85.1133 49.957C84.8398 49.6367 84.5 49.3828 84.0938 49.1953C83.6953 49.0078 83.2227 48.9141 82.6758 48.9141C82.082 48.9141 81.5703 49.0391 81.1406 49.2891C80.7188 49.5312 80.3711 49.8672 80.0977 50.2969C79.8242 50.7188 79.6211 51.2109 79.4883 51.7734C79.3633 52.3281 79.3008 52.9219 79.3008 53.5547ZM90.6328 53.8008V53.5312C90.6328 52.6172 90.7656 51.7695 91.0312 50.9883C91.2969 50.1992 91.6797 49.5156 92.1797 48.9375C92.6797 48.3516 93.2852 47.8984 93.9961 47.5781C94.707 47.25 95.5039 47.0859 96.3867 47.0859C97.2773 47.0859 98.0781 47.25 98.7891 47.5781C99.5078 47.8984 100.117 48.3516 100.617 48.9375C101.125 49.5156 101.512 50.1992 101.777 50.9883C102.043 51.7695 102.176 52.6172 102.176 53.5312V53.8008C102.176 54.7148 102.043 55.5625 101.777 56.3438C101.512 57.125 101.125 57.8086 100.617 58.3945C100.117 58.9727 99.5117 59.4258 98.8008 59.7539C98.0977 60.0742 97.3008 60.2344 96.4102 60.2344C95.5195 60.2344 94.7188 60.0742 94.0078 59.7539C93.2969 59.4258 92.6875 58.9727 92.1797 58.3945C91.6797 57.8086 91.2969 57.125 91.0312 56.3438C90.7656 55.5625 90.6328 54.7148 90.6328 53.8008ZM92.8008 53.5312V53.8008C92.8008 54.4336 92.875 55.0312 93.0234 55.5938C93.1719 56.1484 93.3945 56.6406 93.6914 57.0703C93.9961 57.5 94.375 57.8398 94.8281 58.0898C95.2812 58.332 95.8086 58.4531 96.4102 58.4531C97.0039 58.4531 97.5234 58.332 97.9688 58.0898C98.4219 57.8398 98.7969 57.5 99.0938 57.0703C99.3906 56.6406 99.6133 56.1484 99.7617 55.5938C99.918 55.0312 99.9961 54.4336 99.9961 53.8008V53.5312C99.9961 52.9062 99.918 52.3164 99.7617 51.7617C99.6133 51.1992 99.3867 50.7031 99.082 50.2734C98.7852 49.8359 98.4102 49.4922 97.957 49.2422C97.5117 48.9922 96.9883 48.8672 96.3867 48.8672C95.793 48.8672 95.2695 48.9922 94.8164 49.2422C94.3711 49.4922 93.9961 49.8359 93.6914 50.2734C93.3945 50.7031 93.1719 51.1992 93.0234 51.7617C92.875 52.3164 92.8008 52.9062 92.8008 53.5312ZM112.277 56.6367C112.277 56.3242 112.207 56.0352 112.066 55.7695C111.934 55.4961 111.656 55.25 111.234 55.0312C110.82 54.8047 110.195 54.6094 109.359 54.4453C108.656 54.2969 108.02 54.1211 107.449 53.918C106.887 53.7148 106.406 53.4688 106.008 53.1797C105.617 52.8906 105.316 52.5508 105.105 52.1602C104.895 51.7695 104.789 51.3125 104.789 50.7891C104.789 50.2891 104.898 49.8164 105.117 49.3711C105.344 48.9258 105.66 48.5312 106.066 48.1875C106.48 47.8438 106.977 47.5742 107.555 47.3789C108.133 47.1836 108.777 47.0859 109.488 47.0859C110.504 47.0859 111.371 47.2656 112.09 47.625C112.809 47.9844 113.359 48.4648 113.742 49.0664C114.125 49.6602 114.316 50.3203 114.316 51.0469H112.148C112.148 50.6953 112.043 50.3555 111.832 50.0273C111.629 49.6914 111.328 49.4141 110.93 49.1953C110.539 48.9766 110.059 48.8672 109.488 48.8672C108.887 48.8672 108.398 48.9609 108.023 49.1484C107.656 49.3281 107.387 49.5586 107.215 49.8398C107.051 50.1211 106.969 50.418 106.969 50.7305C106.969 50.9648 107.008 51.1758 107.086 51.3633C107.172 51.543 107.32 51.7109 107.531 51.8672C107.742 52.0156 108.039 52.1562 108.422 52.2891C108.805 52.4219 109.293 52.5547 109.887 52.6875C110.926 52.9219 111.781 53.2031 112.453 53.5312C113.125 53.8594 113.625 54.2617 113.953 54.7383C114.281 55.2148 114.445 55.793 114.445 56.4727C114.445 57.0273 114.328 57.5352 114.094 57.9961C113.867 58.457 113.535 58.8555 113.098 59.1914C112.668 59.5195 112.152 59.7773 111.551 59.9648C110.957 60.1445 110.289 60.2344 109.547 60.2344C108.43 60.2344 107.484 60.0352 106.711 59.6367C105.938 59.2383 105.352 58.7227 104.953 58.0898C104.555 57.457 104.355 56.7891 104.355 56.0859H106.535C106.566 56.6797 106.738 57.1523 107.051 57.5039C107.363 57.8477 107.746 58.0938 108.199 58.2422C108.652 58.3828 109.102 58.4531 109.547 58.4531C110.141 58.4531 110.637 58.375 111.035 58.2188C111.441 58.0625 111.75 57.8477 111.961 57.5742C112.172 57.3008 112.277 56.9883 112.277 56.6367Z" fill="#996DFF"/>
</svg>
